<svg version="1.1" xmlns="http://www.w3.org/2000/svg" viewBox="0 0 484.0311356504981 216.22373702090835" width="968.0622713009961" height="432.4474740418167">
  <!-- svg-source:excalidraw -->
  
  <defs>
    <style class="style-fonts">
      @font-face {
        font-family: "Virgil";
        src: url("https://excalidraw.com/Virgil.woff2");
      }
      @font-face {
        font-family: "Cascadia";
        src: url("https://excalidraw.com/Cascadia.woff2");
      }
      @font-face {
        font-family: "Assistant";
        src: url("https://excalidraw.com/Assistant-Regular.woff2");
      }
    </style>
    
  </defs>
  <rect x="0" y="0" width="484.0311356504981" height="216.22373702090835" fill="#ffffff"></rect><g stroke-linecap="round" transform="translate(203.8889444272329 25.579513983811992) rotate(0 32.41835451470081 47.30674982706314)"><path d="M0 0 C19.25 0, 38.49 0, 64.84 0 M0 0 C20.48 0, 40.96 0, 64.84 0 M64.84 0 C64.84 20.51, 64.84 41.03, 64.84 94.61 M64.84 0 C64.84 22.09, 64.84 44.19, 64.84 94.61 M64.84 94.61 C48.37 94.61, 31.9 94.61, 0 94.61 M64.84 94.61 C39.87 94.61, 14.91 94.61, 0 94.61 M0 94.61 C0 58.48, 0 22.35, 0 0 M0 94.61 C0 71.78, 0 48.94, 0 0" stroke="#343a40" stroke-width="1" fill="none"></path></g><g transform="translate(213.19271918263644 51.85680372473968) rotate(0 22.013671875 3.470417406867959)"><text x="22.013671875" y="0" font-family="Cascadia, Segoe UI Emoji" font-size="5.784029011446593px" fill="#343a40" text-anchor="middle" style="white-space: pre;" direction="ltr" dominant-baseline="text-before-edge">create/import</text></g><g transform="translate(200.22612539332818 10) rotate(0 36.703125 4.178093589915541)"><text x="36.703125" y="0" font-family="Cascadia, Segoe UI Emoji" font-size="6.963489316525896px" fill="#343a40" text-anchor="middle" style="white-space: pre;" direction="ltr" dominant-baseline="text-before-edge">ironfish-extension</text></g><g transform="translate(215.04137422287954 80.22350215641812) rotate(0 20.3203125 3.470417406867952)"><text x="20.3203125" y="0" font-family="Cascadia, Segoe UI Emoji" font-size="5.784029011446593px" fill="#343a40" text-anchor="middle" style="white-space: pre;" direction="ltr" dominant-baseline="text-before-edge">send/receive</text></g><g transform="translate(281.68156147557943 55.65765310681948) rotate(0 9.228515625 3.1521634042945266)"><text x="9.228515625" y="0" font-family="Cascadia, Segoe UI Emoji" font-size="5.253605673824214px" fill="#343a40" text-anchor="middle" style="white-space: pre;" direction="ltr" dominant-baseline="text-before-edge">crypto</text></g><g stroke-linecap="round" transform="translate(308.5243960224909 24.109586696956853) rotate(0 32.41835451470081 47.30674982706315)"><path d="M0 0 C20.79 0, 41.59 0, 64.84 0 M0 0 C19.23 0, 38.46 0, 64.84 0 M64.84 0 C64.84 21.36, 64.84 42.72, 64.84 94.61 M64.84 0 C64.84 26.08, 64.84 52.16, 64.84 94.61 M64.84 94.61 C43.73 94.61, 22.62 94.61, 0 94.61 M64.84 94.61 C44.44 94.61, 24.04 94.61, 0 94.61 M0 94.61 C0 67.52, 0 40.44, 0 0 M0 94.61 C0 67.94, 0 41.26, 0 0" stroke="#343a40" stroke-width="1" fill="none"></path></g><g transform="translate(313.35094354217813 12.897060745783662) rotate(0 26.5078125 4.178093589915534)"><text x="26.5078125" y="0" font-family="Cascadia, Segoe UI Emoji" font-size="6.963489316525896px" fill="#343a40" text-anchor="middle" style="white-space: pre;" direction="ltr" dominant-baseline="text-before-edge">ironfish-wasm</text></g><g transform="translate(318.24639276745984 51.81515848284516) rotate(0 22.013671875 3.470417406867959)"><text x="22.013671875" y="0" font-family="Cascadia, Segoe UI Emoji" font-size="5.784029011446593px" fill="#343a40" text-anchor="middle" style="white-space: pre;" direction="ltr" dominant-baseline="text-before-edge">create/import</text></g><g transform="translate(333.0422662785463 62.322985970677905) rotate(0 6.7734375 3.470417406867959)"><text x="6.7734375" y="0" font-family="Cascadia, Segoe UI Emoji" font-size="5.784029011446593px" fill="#343a40" text-anchor="middle" style="white-space: pre;" direction="ltr" dominant-baseline="text-before-edge">sign</text></g><g transform="translate(325.61333647324 72.82620071597862) rotate(0 15.240234375 3.470417406867959)"><text x="15.240234375" y="0" font-family="Cascadia, Segoe UI Emoji" font-size="5.784029011446593px" fill="#343a40" text-anchor="middle" style="white-space: pre;" direction="ltr" dominant-baseline="text-before-edge">gen_proof</text></g><g stroke-linecap="round" transform="translate(409.19442662109645 22.96101380649577) rotate(0 32.41835451470081 47.30674982706315)"><path d="M0 0 C19.95 0, 39.9 0, 64.84 0 M0 0 C24.58 0, 49.16 0, 64.84 0 M64.84 0 C64.84 35.93, 64.84 71.85, 64.84 94.61 M64.84 0 C64.84 33.28, 64.84 66.57, 64.84 94.61 M64.84 94.61 C43.74 94.61, 22.65 94.61, 0 94.61 M64.84 94.61 C47.05 94.61, 29.26 94.61, 0 94.61 M0 94.61 C0 73.13, 0 51.64, 0 0 M0 94.61 C0 62.59, 0 30.56, 0 0" stroke="#343a40" stroke-width="1" fill="none"></path></g><g transform="translate(404.55778042339193 11.273375374529436) rotate(0 34.6640625 4.178093589915534)"><text x="34.6640625" y="0" font-family="Cascadia, Segoe UI Emoji" font-size="6.963489316525896px" fill="#343a40" text-anchor="middle" style="white-space: pre;" direction="ltr" dominant-baseline="text-before-edge">ironfish-optimize</text></g><g transform="translate(417.670982882433 54.59510464878045) rotate(0 22.013671875 13.88166962747183)"><text x="22.013671875" y="0" font-family="Cascadia, Segoe UI Emoji" font-size="5.784029011446593px" fill="#343a40" text-anchor="middle" style="white-space: pre;" direction="ltr" dominant-baseline="text-before-edge">based on</text><text x="22.013671875" y="6.940834813735912" font-family="Cascadia, Segoe UI Emoji" font-size="5.784029011446593px" fill="#343a40" text-anchor="middle" style="white-space: pre;" direction="ltr" dominant-baseline="text-before-edge">ironfish-rust</text><text x="22.013671875" y="13.881669627471824" font-family="Cascadia, Segoe UI Emoji" font-size="5.784029011446593px" fill="#343a40" text-anchor="middle" style="white-space: pre;" direction="ltr" dominant-baseline="text-before-edge">for wasm</text><text x="22.013671875" y="20.822504441207737" font-family="Cascadia, Segoe UI Emoji" font-size="5.784029011446593px" fill="#343a40" text-anchor="middle" style="white-space: pre;" direction="ltr" dominant-baseline="text-before-edge"></text></g><g stroke-linecap="round"><g transform="translate(374.26827774984713 71.36713393701228) rotate(0 16.588190935394096 -0.02537008392583573)"><path d="M0 0 C4.68 0, 9.35 0, 22.44 0 M0 0 C5.37 0, 10.73 0, 22.44 0 M22.44 0 C25.22 -0.02, 28 -0.03, 33.18 -0.05 M22.44 0 C25.11 -0.02, 27.78 -0.03, 33.18 -0.05" stroke="#343a40" stroke-width="1" fill="none"></path></g><g transform="translate(374.26827774984713 71.36713393701228) rotate(0 16.588190935394096 -0.02537008392583573)"><path d="M28.14 1.81 C29.19 1.42, 30.24 1.03, 33.18 -0.05 M28.14 1.81 C29.34 1.36, 30.55 0.92, 33.18 -0.05" stroke="#343a40" stroke-width="1" fill="none"></path></g><g transform="translate(374.26827774984713 71.36713393701228) rotate(0 16.588190935394096 -0.02537008392583573)"><path d="M28.12 -1.86 C29.18 -1.49, 30.23 -1.11, 33.18 -0.05 M28.12 -1.86 C29.33 -1.43, 30.54 -1, 33.18 -0.05" stroke="#343a40" stroke-width="1" fill="none"></path></g></g><mask></mask><g transform="translate(378.6955449941545 57.776334182864616) rotate(0 12.3046875 3.1521634042945266)"><text x="12.3046875" y="0" font-family="Cascadia, Segoe UI Emoji" font-size="5.253605673824214px" fill="#343a40" text-anchor="middle" style="white-space: pre;" direction="ltr" dominant-baseline="text-before-edge">based on</text></g><g stroke-linecap="round" transform="translate(104.62733788172227 25.823989338006484) rotate(0 32.41835451470081 47.30674982706314)"><path d="M0 0 C16.24 0, 32.49 0, 64.84 0 M0 0 C17.31 0, 34.61 0, 64.84 0 M64.84 0 C64.84 37.56, 64.84 75.12, 64.84 94.61 M64.84 0 C64.84 31.54, 64.84 63.07, 64.84 94.61 M64.84 94.61 C49.26 94.61, 33.68 94.61, 0 94.61 M64.84 94.61 C46.66 94.61, 28.48 94.61, 0 94.61 M0 94.61 C0 61.64, 0 28.66, 0 0 M0 94.61 C0 74.12, 0 53.62, 0 0" stroke="#343a40" stroke-width="1" fill="none"></path></g><g stroke-linecap="round"><g transform="translate(202.61890265009674 67.53240731209941) rotate(0 -17.017175990867713 0)"><path d="M0 0 C-5.82 0, -11.64 0, -22.22 0 M-22.22 0 C-25 0, -27.78 0, -34.03 0" stroke="#343a40" stroke-width="1.5" fill="none" stroke-dasharray="1.5 7"></path></g><g transform="translate(202.61890265009674 67.53240731209941) rotate(0 -17.017175990867713 0)"><path d="M-28.48 -2.02 C-29.94 -1.49, -31.39 -0.96, -34.03 0" stroke="#343a40" stroke-width="1.5" fill="none" stroke-dasharray="1.5 5"></path></g><g transform="translate(202.61890265009674 67.53240731209941) rotate(0 -17.017175990867713 0)"><path d="M-28.48 2.02 C-29.94 1.49, -31.39 0.96, -34.03 0" stroke="#343a40" stroke-width="1.5" fill="none" stroke-dasharray="1.5 5"></path></g></g><mask></mask><g transform="translate(108.8642536992727 13.790758978821444) rotate(0 29.0478515625 3.9686188324536147)"><text x="29.0478515625" y="0" font-family="Cascadia, Segoe UI Emoji" font-size="6.614364720756029px" fill="#343a40" text-anchor="middle" style="white-space: pre;" direction="ltr" dominant-baseline="text-before-edge">ironfish-server</text></g><g transform="translate(106.78830016325196 46.175286714954495) rotate(0 30.76171875 22.065143830061693)"><text x="30.76171875" y="0" font-family="Cascadia, Segoe UI Emoji" font-size="5.253605673824214px" fill="#343a40" text-anchor="middle" style="white-space: pre;" direction="ltr" dominant-baseline="text-before-edge">importViewOnly</text><text x="30.76171875" y="6.304326808589056" font-family="Cascadia, Segoe UI Emoji" font-size="5.253605673824214px" fill="#343a40" text-anchor="middle" style="white-space: pre;" direction="ltr" dominant-baseline="text-before-edge">getStatus</text><text x="30.76171875" y="12.608653617178112" font-family="Cascadia, Segoe UI Emoji" font-size="5.253605673824214px" fill="#343a40" text-anchor="middle" style="white-space: pre;" direction="ltr" dominant-baseline="text-before-edge">getBalances</text><text x="30.76171875" y="18.912980425767167" font-family="Cascadia, Segoe UI Emoji" font-size="5.253605673824214px" fill="#343a40" text-anchor="middle" style="white-space: pre;" direction="ltr" dominant-baseline="text-before-edge">getTransactions</text><text x="30.76171875" y="25.217307234356223" font-family="Cascadia, Segoe UI Emoji" font-size="5.253605673824214px" fill="#343a40" text-anchor="middle" style="white-space: pre;" direction="ltr" dominant-baseline="text-before-edge">createTransaction</text><text x="30.76171875" y="31.52163404294528" font-family="Cascadia, Segoe UI Emoji" font-size="5.253605673824214px" fill="#343a40" text-anchor="middle" style="white-space: pre;" direction="ltr" dominant-baseline="text-before-edge">genProof</text><text x="30.76171875" y="37.82596085153433" font-family="Cascadia, Segoe UI Emoji" font-size="5.253605673824214px" fill="#343a40" text-anchor="middle" style="white-space: pre;" direction="ltr" dominant-baseline="text-before-edge">broadcastTransaction</text></g><g stroke-linecap="round" transform="translate(10 26.34984198665134) rotate(0 32.41835451470081 47.30674982706315)"><path d="M0 0 C13.35 0, 26.69 0, 64.84 0 M0 0 C16.38 0, 32.76 0, 64.84 0 M64.84 0 C64.84 24.7, 64.84 49.4, 64.84 94.61 M64.84 0 C64.84 22.91, 64.84 45.82, 64.84 94.61 M64.84 94.61 C45.54 94.61, 26.24 94.61, 0 94.61 M64.84 94.61 C43.59 94.61, 22.34 94.61, 0 94.61 M0 94.61 C0 71.24, 0 47.87, 0 0 M0 94.61 C0 64.76, 0 34.9, 0 0" stroke="#343a40" stroke-width="1" fill="none"></path></g><g stroke-linecap="round"><g transform="translate(271.69164690469256 68.39114621346818) rotate(0 17.1190407217822 -0.02306371265984808)"><path d="M0 0 C5.16 0, 10.32 0, 23.5 0 M0 0 C8.64 0, 17.27 0, 23.5 0 M23.5 0 C27 -0.02, 30.51 -0.03, 34.24 -0.05 M23.5 0 C27.7 -0.02, 31.9 -0.04, 34.24 -0.05" stroke="#343a40" stroke-width="1" fill="none"></path></g><g transform="translate(271.69164690469256 68.39114621346818) rotate(0 17.1190407217822 -0.02306371265984808)"><path d="M29.2 1.81 C30.31 1.4, 31.41 1, 34.24 -0.05 M29.2 1.81 C31.05 1.13, 32.9 0.45, 34.24 -0.05" stroke="#343a40" stroke-width="1" fill="none"></path></g><g transform="translate(271.69164690469256 68.39114621346818) rotate(0 17.1190407217822 -0.02306371265984808)"><path d="M29.19 -1.86 C30.3 -1.46, 31.4 -1.06, 34.24 -0.05 M29.19 -1.86 C31.04 -1.19, 32.9 -0.53, 34.24 -0.05" stroke="#343a40" stroke-width="1" fill="none"></path></g></g><mask></mask><g transform="translate(18.638844807616124 13.223391647388894) rotate(0 23.23828125 3.9686188324536147)"><text x="23.23828125" y="0" font-family="Cascadia, Segoe UI Emoji" font-size="6.614364720756029px" fill="#343a40" text-anchor="middle" style="white-space: pre;" direction="ltr" dominant-baseline="text-before-edge">ironfish-rpc</text></g><g transform="translate(10.006811519099074 48.88223053654116) rotate(0 30.76171875 18.912980425767167)"><text x="30.76171875" y="0" font-family="Cascadia, Segoe UI Emoji" font-size="5.253605673824214px" fill="#343a40" text-anchor="middle" style="white-space: pre;" direction="ltr" dominant-baseline="text-before-edge">importViewOnly</text><text x="30.76171875" y="6.304326808589056" font-family="Cascadia, Segoe UI Emoji" font-size="5.253605673824214px" fill="#343a40" text-anchor="middle" style="white-space: pre;" direction="ltr" dominant-baseline="text-before-edge">getStatus</text><text x="30.76171875" y="12.608653617178112" font-family="Cascadia, Segoe UI Emoji" font-size="5.253605673824214px" fill="#343a40" text-anchor="middle" style="white-space: pre;" direction="ltr" dominant-baseline="text-before-edge">getBalances</text><text x="30.76171875" y="18.912980425767167" font-family="Cascadia, Segoe UI Emoji" font-size="5.253605673824214px" fill="#343a40" text-anchor="middle" style="white-space: pre;" direction="ltr" dominant-baseline="text-before-edge">getTransactions</text><text x="30.76171875" y="25.217307234356223" font-family="Cascadia, Segoe UI Emoji" font-size="5.253605673824214px" fill="#343a40" text-anchor="middle" style="white-space: pre;" direction="ltr" dominant-baseline="text-before-edge">createTransaction</text><text x="30.76171875" y="31.52163404294528" font-family="Cascadia, Segoe UI Emoji" font-size="5.253605673824214px" fill="#343a40" text-anchor="middle" style="white-space: pre;" direction="ltr" dominant-baseline="text-before-edge">broadcastTransaction</text></g><g stroke-linecap="round" transform="translate(106.77533832077756 152.11934228256212) rotate(0 32.41835451470081 27.052197369173115)"><path d="M0 0 C16.7 0, 33.39 0, 64.84 0 M0 0 C25.27 0, 50.53 0, 64.84 0 M64.84 0 C64.84 20.35, 64.84 40.71, 64.84 54.1 M64.84 0 C64.84 13.63, 64.84 27.26, 64.84 54.1 M64.84 54.1 C46.61 54.1, 28.38 54.1, 0 54.1 M64.84 54.1 C40.06 54.1, 15.29 54.1, 0 54.1 M0 54.1 C0 33.57, 0 13.03, 0 0 M0 54.1 C0 37.88, 0 21.65, 0 0" stroke="#343a40" stroke-width="1" fill="none"></path></g><g transform="translate(124.25952791083432 142.26793914099983) rotate(0 11.619140625 3.9686188324536147)"><text x="11.619140625" y="0" font-family="Cascadia, Segoe UI Emoji" font-size="6.614364720756029px" fill="#343a40" text-anchor="middle" style="white-space: pre;" direction="ltr" dominant-baseline="text-before-edge">prover</text></g><g transform="translate(122.96961685373867 174.19734294731165) rotate(0 15.4921875 3.9686188324536147)"><text x="15.4921875" y="0" font-family="Cascadia, Segoe UI Emoji" font-size="6.614364720756029px" fill="#343a40" text-anchor="middle" style="white-space: pre;" direction="ltr" dominant-baseline="text-before-edge">genProof</text></g><g stroke-linecap="round"><g transform="translate(136.6489965386736 121.82438691341248) rotate(0 0 9.515319053036706)"><path d="M0 0 C0 3.97, 0 7.93, 0 10.26 M0 0 C0 3.42, 0 6.84, 0 10.26 M0 10.26 C0 13.27, 0 16.28, 0 19.03 M0 10.26 C0 13.35, 0 16.43, 0 19.03" stroke="#343a40" stroke-width="1" fill="none"></path></g><g transform="translate(136.6489965386736 121.82438691341248) rotate(0 0 9.515319053036706)"><path d="M-1.5 14.91 C-0.92 16.5, -0.34 18.1, 0 19.03 M-1.5 14.91 C-1 16.28, -0.5 17.66, 0 19.03" stroke="#343a40" stroke-width="1" fill="none"></path></g><g transform="translate(136.6489965386736 121.82438691341248) rotate(0 0 9.515319053036706)"><path d="M1.5 14.91 C0.92 16.5, 0.34 18.1, 0 19.03 M1.5 14.91 C1 16.28, 0.5 17.66, 0 19.03" stroke="#343a40" stroke-width="1" fill="none"></path></g></g><mask></mask><g stroke-linecap="round"><g transform="translate(172.89900251659924 177.57245557398483) rotate(0 86.30825672531034 0)"><path d="M0 0 C58.18 0, 116.36 0, 172.62 0 M0 0 C44.74 0, 89.48 0, 172.62 0" stroke="#343a40" stroke-width="1" fill="none"></path></g></g><mask></mask><g stroke-linecap="round"><g transform="translate(344.94353589325533 176.6960344929101) rotate(0 0 -26.94456671009374)"><path d="M0 0 C0 -8.61, 0 -17.21, 0 -32.35 M0 0 C0 -10.09, 0 -20.17, 0 -32.35 M0 -32.35 C0 -38.43, 0 -44.51, 0 -53.89 M0 -32.35 C0 -40.67, 0 -48.99, 0 -53.89" stroke="#343a40" stroke-width="1" fill="none"></path></g><g transform="translate(344.94353589325533 176.6960344929101) rotate(0 0 -26.94456671009374)"><path d="M3.68 -43.77 C2.7 -46.46, 1.72 -49.15, 0 -53.89 M3.68 -43.77 C2.53 -46.92, 1.39 -50.08, 0 -53.89" stroke="#343a40" stroke-width="1" fill="none"></path></g><g transform="translate(344.94353589325533 176.6960344929101) rotate(0 0 -26.94456671009374)"><path d="M-3.68 -43.77 C-2.7 -46.46, -1.72 -49.15, 0 -53.89 M-3.68 -43.77 C-2.53 -46.92, -1.39 -50.08, 0 -53.89" stroke="#343a40" stroke-width="1" fill="none"></path></g></g><mask></mask><g transform="translate(239.6094238206299 164.8415937019103) rotate(0 18.2109375 4.664980523127312)"><text x="18.2109375" y="0" font-family="Cascadia, Segoe UI Emoji" font-size="7.774967538545525px" fill="#343a40" text-anchor="middle" style="white-space: pre;" direction="ltr" dominant-baseline="text-before-edge">based on</text></g><g stroke-linecap="round"><g transform="translate(101.83047832650323 66.99579159754661) rotate(0 -12.778065603985056 0)"><path d="M0 0 C-3.61 0, -7.22 0, -17.06 0 M0 0 C-6.48 0, -12.97 0, -17.06 0 M-17.06 0 C-20.27 0, -23.47 0, -25.56 0 M-17.06 0 C-19.5 0, -21.93 0, -25.56 0" stroke="#343a40" stroke-width="1" fill="none"></path></g><g transform="translate(101.83047832650323 66.99579159754661) rotate(0 -12.778065603985056 0)"><path d="M-21.56 -1.45 C-22.41 -1.15, -23.25 -0.84, -25.56 0 M-21.56 -1.45 C-23.08 -0.9, -24.6 -0.35, -25.56 0" stroke="#343a40" stroke-width="1" fill="none"></path></g><g transform="translate(101.83047832650323 66.99579159754661) rotate(0 -12.778065603985056 0)"><path d="M-21.56 1.45 C-22.41 1.15, -23.25 0.84, -25.56 0 M-21.56 1.45 C-23.08 0.9, -24.6 0.35, -25.56 0" stroke="#343a40" stroke-width="1" fill="none"></path></g></g><mask></mask></svg>